<svg id="burger" xmlns="http://www.w3.org/2000/svg" width="56" height="56" viewBox="0 0 56 56">
  <circle id="Ellipse_36" data-name="Ellipse 36" cx="28" cy="28" r="28" fill="#fff"/>
  <path id="Path_10" data-name="Path 10" d="M2.844.5H29.967a.886.886,0,0,1,.969.769L29.061,4.728a.886.886,0,0,1-.969.769H.969A.886.886,0,0,1,0,4.728L1.875,1.266A.886.886,0,0,1,2.844.5Z" transform="translate(12.5 21)" fill="#000f22"/>
  <path id="Path_11" data-name="Path 11" d="M9.01.372,29.974.466a.877.877,0,0,1,.961.754l-1.86,3.4a.877.877,0,0,1-.961.754L7.149,5.277a.877.877,0,0,1-.961-.754l1.86-3.4A.877.877,0,0,1,9.01.372Z" transform="translate(10.406 29)" fill="#000f22"/>
</svg>
