<svg id="logo" xmlns="http://www.w3.org/2000/svg" xmlns:xlink="http://www.w3.org/1999/xlink" width="56" height="56" viewBox="0 0 56 56">
  <defs>
    <clipPath id="clip-path">
      <rect id="Rectangle_38" data-name="Rectangle 38" width="36.722" height="14.66" fill="#000f22"/>
    </clipPath>
  </defs>
  <circle id="Ellipse_34" data-name="Ellipse 34" cx="28" cy="28" r="28" fill="#fff"/>
  <g id="Group_5" data-name="Group 5" transform="translate(10 21)" clip-path="url(#clip-path)">
    <path id="Path_5" data-name="Path 5" d="M104.017,14.636h3.921c.39.031.613-.16.777-.671l2.851-6.929A.558.558,0,0,0,111,6.366h-3.921c-.37,0-.548.141-.776.671l-1.065,2.379a.721.721,0,0,1-1.347-.032L99.742.447A.671.671,0,0,0,99.11,0H95.375a.671.671,0,0,0-.632.447L88.994,13.765a.673.673,0,0,0,.262.784.722.722,0,0,0,.406.111h3.059a.671.671,0,0,0,.632-.447l3.256-7.466a.671.671,0,0,1,1.265,0l3.108,7.3a.758.758,0,0,0,.779.595" transform="translate(-77.047)" fill="#000f22"/>
    <path id="Path_6" data-name="Path 6" d="M227.672,5.864h4.062a.558.558,0,0,1,.565.671l-1.086,2.507c-.2.551-.5.81-.873.81h-3.95a.558.558,0,0,1-.565-.671L226.9,6.535c.171-.382.406-.671.776-.671" transform="translate(-195.585 -5.079)" fill="#000f22"/>
    <path id="Path_7" data-name="Path 7" d="M.123,6a.67.67,0,0,1,.548-.284H4.079a.671.671,0,0,1,.632.447l2.136,5.222a.671.671,0,0,0,.632.447.706.706,0,0,0,.694-.387l.65-1.284a.671.671,0,0,1,.632-.447h3.279a.671.671,0,0,1,.632.895L9.979,19.061a.671.671,0,0,1-.632.447H5.611a.671.671,0,0,1-.632-.447L.039,6.613A.67.67,0,0,1,.123,6" transform="translate(0 -4.953)" fill="#000f22"/>
  </g>
</svg>
